<svg width="21" height="20" viewBox="0 0 21 20" fill="none" xmlns="http://www.w3.org/2000/svg">
<g clip-path="url(#clip0_12_65)">
<path d="M10.5 4.16667C11.6508 4.16667 12.5833 5.09917 12.5833 6.25C12.5833 7.40083 11.6508 8.33333 10.5 8.33333C9.34914 8.33333 8.41664 7.40083 8.41664 6.25C8.41664 5.09917 9.34914 4.16667 10.5 4.16667ZM13.8333 11.6667V14.1667C13.8333 14.9025 13.5075 15.5583 13 16.0167V19.1667C13 19.6275 12.6266 20 12.1666 20C11.7066 20 11.3333 19.6275 11.3333 19.1667V16.6667H9.66664V19.1667C9.66664 19.6275 9.29331 20 8.83331 20C8.37331 20 7.99997 19.6275 7.99997 19.1667V16.0167C7.49247 15.5592 7.16664 14.9025 7.16664 14.1667V11.6667C7.16664 10.2883 8.28831 9.16667 9.66664 9.16667H11.3333C12.7116 9.16667 13.8333 10.2883 13.8333 11.6667ZM16.3333 4.16667C17.4841 4.16667 18.4166 3.23417 18.4166 2.08333C18.4166 0.9325 17.4841 0 16.3333 0C15.1825 0 14.25 0.9325 14.25 2.08333C14.25 3.23417 15.1825 4.16667 16.3333 4.16667ZM20.4808 13.8567L19.7508 8.0175C19.5366 6.2975 18.0675 5 16.3333 5C15.53 5 14.7908 5.28667 14.2 5.75667C14.2216 5.92 14.25 6.08083 14.25 6.25C14.25 6.97583 14.0333 7.64917 13.675 8.22333C14.775 8.97417 15.5 10.2367 15.5 11.6667V14.1667C15.5 15.0642 15.2025 15.9358 14.6666 16.6508V16.6667H17.1666V19.1667C17.1666 19.6267 17.5391 20 18 20C18.4608 20 18.8333 19.6267 18.8333 19.1667V16.51C19.2283 16.3692 19.5908 16.1425 19.8741 15.8217C20.3483 15.2842 20.5691 14.5675 20.4808 13.8567ZM6.74997 2.08333C6.74997 0.9325 5.81664 0 4.66664 0C3.51664 0 2.58331 0.9325 2.58331 2.08333C2.58331 3.23417 3.51581 4.16667 4.66664 4.16667C5.81747 4.16667 6.74997 3.23417 6.74997 2.08333ZM1.12581 15.8208C1.40914 16.1417 1.77164 16.3692 2.16664 16.5092V19.1658C2.16664 19.6258 2.53914 19.9992 2.99997 19.9992C3.46081 19.9992 3.83331 19.6258 3.83331 19.1658V16.6658H6.33331V16.65C5.79747 15.935 5.49997 15.0633 5.49997 14.1658V11.6658C5.49997 10.2358 6.22497 8.97333 7.32497 8.2225C6.96664 7.6475 6.74997 6.975 6.74997 6.24917C6.74997 6.08 6.77831 5.91917 6.79997 5.75583C6.20914 5.28667 5.46997 4.99917 4.66664 4.99917C2.93247 4.99917 1.46331 6.29667 1.24914 8.01667L0.519139 13.8567C0.430806 14.5683 0.650806 15.2833 1.12581 15.8208Z" fill="white"/>
</g>
<defs>
<clipPath id="clip0_12_65">
<rect width="20" height="20" fill="white" transform="translate(0.5)"/>
</clipPath>
</defs>
</svg>
