<svg width="18" height="22" viewBox="0 0 18 22" fill="none" xmlns="http://www.w3.org/2000/svg">
<path d="M17.3321 4.76932C17.3329 4.04849 16.8946 3.42765 16.2154 3.18765L10.8279 1.28682C9.67124 0.877654 8.39791 0.87682 7.24207 1.28182L1.78957 3.19015C1.10791 3.42849 0.667908 4.04849 0.667908 4.77015C0.667908 5.49265 1.10874 6.11265 1.79041 6.35015L7.21291 8.24182C7.78708 8.44182 8.39124 8.54265 8.99457 8.54265C9.59791 8.54265 10.2012 8.44182 10.7754 8.24182L15.6621 6.53765V10.1868C15.6621 10.6468 16.0354 11.0202 16.4954 11.0202C16.9554 11.0202 17.3287 10.6468 17.3287 10.1868C17.3287 10.1868 17.3321 4.77682 17.3321 4.76932ZM11.3246 9.81599L13.9954 8.88432V9.35432C13.9954 12.1118 11.7529 14.3543 8.99541 14.3543C6.23791 14.3543 3.99541 12.1118 3.99541 9.35432V8.88515L6.66457 9.81682C8.16374 10.3393 9.82624 10.3393 11.3246 9.81682V9.81599ZM14.8287 21.021H3.16207C2.89707 21.021 2.64791 20.8952 2.49124 20.6818C2.33457 20.4685 2.28791 20.1935 2.36624 19.9402C3.23624 17.1418 5.96207 15.1877 8.99541 15.1877C12.0287 15.1877 14.7546 17.1418 15.6246 19.9402C15.7029 20.1926 15.6571 20.4685 15.4996 20.6818C15.3421 20.8952 15.0937 21.021 14.8287 21.021Z" fill="white"/>
</svg>
